<svg xmlns="http://www.w3.org/2000/svg" xmlns:xlink="http://www.w3.org/1999/xlink" version="1.1" id="Layer_1" x="0px" y="0px" viewBox="0 0 100 100" enable-background="new 0 0 100 100" xml:space="preserve" height="100px" width="100px">
<g>
	<path fill="#000000" d="M75.296,5.62H24.704c-5.902,0-10.705,4.802-10.705,10.705v67.351c0,5.902,4.803,10.705,10.705,10.705   h50.592c5.902,0,10.705-4.802,10.705-10.705V16.325C86.001,10.422,81.198,5.62,75.296,5.62z M24.616,91.375   c-4.208-0.048-7.617-3.481-7.617-7.7V16.325c0-4.219,3.409-7.652,7.617-7.7V91.375z M77.224,91.126   c0.155-3.105,2.565-5.626,5.626-5.941C82.272,88.082,80.063,90.391,77.224,91.126z M83.001,82.177   c-4.87,0.26-8.757,4.277-8.79,9.203H27.616V8.62h47.68c4.249,0,7.705,3.456,7.705,7.705V82.177z"/>
	<path fill="#000000" d="M70.873,17.588H40.004c-3.638,0-6.598,2.96-6.598,6.598V36.35c0,3.638,2.96,6.598,6.598,6.598h30.869   c3.638,0,6.598-2.96,6.598-6.598V24.186C77.471,20.548,74.511,17.588,70.873,17.588z M74.471,36.35   c0,1.984-1.614,3.598-3.598,3.598H40.004c-1.983,0-3.598-1.614-3.598-3.598V24.186c0-1.984,1.614-3.598,3.598-3.598h30.869   c1.983,0,3.598,1.614,3.598,3.598V36.35z"/>
	<path fill="#000000" d="M72.028,47.574H38.848c-0.828,0-1.5,0.671-1.5,1.5v8.475c0,0.829,0.672,1.5,1.5,1.5h33.181   c0.828,0,1.5-0.671,1.5-1.5v-8.475C73.528,48.245,72.856,47.574,72.028,47.574z M70.528,56.048H40.348v-5.475h30.181V56.048z"/>
</g>
</svg>