<?xml version="1.0" encoding="UTF-8" standalone="no"?>
<svg
   xmlns:dc="http://purl.org/dc/elements/1.1/"
   xmlns:cc="http://creativecommons.org/ns#"
   xmlns:rdf="http://www.w3.org/1999/02/22-rdf-syntax-ns#"
   xmlns:svg="http://www.w3.org/2000/svg"
   xmlns="http://www.w3.org/2000/svg"
   xmlns:sodipodi="http://sodipodi.sourceforge.net/DTD/sodipodi-0.dtd"
   xmlns:inkscape="http://www.inkscape.org/namespaces/inkscape"
   version="1.1"
   id="Layer_1"
   x="0px"
   y="0px"
   width="100"
   height="100"
   viewBox="0 0 100 100"
   enable-background="new 0 0 90 90"
   xml:space="preserve"
   inkscape:version="0.48.4 r9939"
   sodipodi:docname="compass.svg"><metadata
     id="metadata11014"><rdf:RDF><cc:Work
         rdf:about=""><dc:format>image/svg+xml</dc:format><dc:type
           rdf:resource="http://purl.org/dc/dcmitype/StillImage" /></cc:Work></rdf:RDF></metadata><defs
     id="defs11012" /><sodipodi:namedview
     pagecolor="#ffffff"
     bordercolor="#666666"
     borderopacity="1"
     objecttolerance="10"
     gridtolerance="10"
     guidetolerance="10"
     inkscape:pageopacity="0"
     inkscape:pageshadow="2"
     inkscape:window-width="1535"
     inkscape:window-height="876"
     id="namedview11010"
     showgrid="false"
     inkscape:zoom="2.6222222"
     inkscape:cx="45"
     inkscape:cy="45"
     inkscape:window-x="65"
     inkscape:window-y="24"
     inkscape:window-maximized="1"
     inkscape:current-layer="Layer_1" /><g
     id="g10361"
     transform="matrix(0.68418183,1.0580927,-1.0580927,0.68418183,584.1637,951.11024)"><g
       id="g10324"><path
         inkscape:connector-curvature="0"
         d="m -814.85351,-16.975421 h -0.958 c 0,4.738 -1.919,9.021 -5.024,12.129 -3.106,3.105 -7.389,5.023 -12.129,5.023 -4.741,0 -9.023,-1.918 -12.131,-5.023 -3.105,-3.108 -5.023,-7.391 -5.024,-12.129 10e-4,-4.739 1.918,-9.022 5.024,-12.129 3.107,-3.106 7.39,-5.023 12.131,-5.024 4.74,0 9.022,1.918 12.129,5.024 3.105,3.107 5.024,7.39 5.024,12.129 h 0.958 0.954 c 0,-10.531 -8.534,-19.067 -19.065,-19.068 -10.534,0 -19.069,8.537 -19.069,19.068 0,10.528 8.536,19.066 19.069,19.066 10.531,0 19.065,-8.538 19.065,-19.066 h -0.954 z"
         id="path8175" /><path
         inkscape:connector-curvature="0"
         d="m -829.32551,-30.179421 -16.425,16.423 c -0.355,0.355 -0.355,0.931 0,1.287 0.355,0.355 0.931,0.355 1.287,0 l 16.424,-16.424 c 0.354,-0.355 0.354,-0.931 0,-1.286 -0.354,-0.355 -0.931,-0.355 -1.286,0"
         id="path8179" /><path
         inkscape:connector-curvature="0"
         d="m -836.06451,-31.302421 -10.809,10.808 c -0.355,0.354 -0.355,0.93 0,1.286 0.356,0.354 0.931,0.354 1.286,0 l 10.809,-10.808 c 0.354,-0.355 0.354,-0.932 0,-1.286 -0.355,-0.355 -0.931,-0.355 -1.286,0"
         id="path8181" /><path
         inkscape:connector-curvature="0"
         d="m -822.59051,-29.056421 -9.732,9.735 c -0.354,0.354 0.272,0.304 0.628,0.658 0.354,0.354 0.302,0.983 0.658,0.627 l 9.733,-9.734 c 0.354,-0.354 0.354,-0.931 0,-1.286 -0.355,-0.355 -0.931,-0.355 -1.287,0"
         id="path8183" /><path
         inkscape:connector-curvature="0"
         d="m -843.34251,-5.731421 9.473,-9.471 c 0.354,-0.356 -0.289,-0.285 -0.643,-0.642 -0.356,-0.354 -0.026,-1.261 -0.382,-0.907 l -9.734,9.734 c -0.354,0.356 -0.354,0.933 0,1.285 0.355,0.356 0.932,0.356 1.286,0.001"
         id="path8185" /><path
         inkscape:connector-curvature="0"
         d="m -821.46451,-22.318421 -6.732,6.73 c -0.354,0.355 0,0.549 0.354,0.903 0.356,0.357 0.577,0.738 0.932,0.383 l 6.732,-6.73 c 0.354,-0.355 0.354,-0.931 0,-1.285 -0.355,-0.357 -0.931,-0.357 -1.286,-0.001"
         id="path8187" /><path
         inkscape:connector-curvature="0"
         d="m -820.34251,-15.582421 -3.89,3.893 c -0.355,0.356 -0.117,0.764 0.237,1.117 0.355,0.355 0.694,0.523 1.049,0.168 l 3.889,-3.892 c 0.354,-0.355 0.354,-0.932 0,-1.286 -0.355,-0.355 -0.931,-0.355 -1.285,0"
         id="path8189" /><path
         inkscape:connector-curvature="0"
         d="m -829.85751,-3.474421 3.891,-3.893 c 0.355,-0.355 -0.548,-0.25 -0.903,-0.606 -0.355,-0.354 -0.027,-1.034 -0.384,-0.679 l -3.89,3.892 c -0.354,0.354 -0.354,0.932 0,1.286 0.355,0.355 0.932,0.355 1.286,0"
         id="path8191" /><path
         inkscape:connector-curvature="0"
         d="m -836.60351,-4.608421 6.597,-6.595 c 0.354,-0.354 -0.291,-0.073 -0.646,-0.429 -0.355,-0.355 -0.284,-1.212 -0.641,-0.856 l -6.596,6.594 c -0.355,0.354 -0.355,0.931 0,1.286 0.355,0.354 0.93,0.354 1.286,0"
         id="path8193" /><path
         inkscape:connector-curvature="0"
         d="m -821.02551,-7.852421 0.26,-0.259 -21.065,-21.066 c -0.461,-0.459 -1.067,-0.691 -1.669,-0.691 -0.601,0 -1.207,0.231 -1.666,0.691 -0.46,0.459 -0.69,1.064 -0.69,1.667 0,0.603 0.231,1.208 0.69,1.668 l 10.523,10.523 0.522,-0.517 c -0.313,-0.317 -0.466,-0.729 -0.467,-1.142 10e-4,-0.417 0.158,-0.83 0.474,-1.146 h -0.002 0.002 c 0.318,-0.317 0.731,-0.476 1.148,-0.476 0.416,0 0.829,0.158 1.147,0.476 0.318,0.318 0.477,0.731 0.477,1.147 0,0.418 -0.158,0.831 -0.477,1.15 -0.318,0.316 -0.73,0.474 -1.146,0.474 -0.414,0 -0.823,-0.155 -1.14,-0.467 l -0.518,0.522 10.522,10.521 c 0.459,0.459 1.065,0.691 1.666,0.691 0.603,0 1.208,-0.232 1.668,-0.691 l -0.006,0.006 0.006,-0.007 c 0.46,-0.46 0.692,-1.065 0.691,-1.667 10e-4,-0.603 -0.231,-1.208 -0.691,-1.667 l -0.259,0.26 -0.26,0.26 c 0.317,0.319 0.475,0.732 0.476,1.148 -10e-4,0.417 -0.158,0.829 -0.476,1.148 l 0.008,-0.008 -0.008,0.008 c -0.318,0.317 -0.73,0.476 -1.148,0.476 -0.415,0 -0.828,-0.158 -1.146,-0.477 l -10.523,-10.52 -0.518,0.523 c 0.458,0.449 1.058,0.678 1.656,0.677 0.602,10e-4 1.206,-0.23 1.664,-0.689 0.46,-0.461 0.693,-1.067 0.693,-1.67 0,-0.602 -0.233,-1.208 -0.693,-1.667 -0.458,-0.461 -1.063,-0.691 -1.666,-0.691 -0.602,0 -1.208,0.23 -1.667,0.691 l 0.002,-0.003 -0.002,0.003 c -0.46,0.459 -0.69,1.064 -0.69,1.666 0,0.598 0.227,1.198 0.679,1.656 l 0.521,-0.517 -10.523,-10.525 c -0.317,-0.317 -0.474,-0.73 -0.475,-1.147 10e-4,-0.416 0.158,-0.829 0.475,-1.147 0.318,-0.318 0.731,-0.475 1.147,-0.475 0.417,0 0.831,0.157 1.149,0.475 l 21.065,21.064 0.26,-0.259 z"
         id="path8197" /><path
         id="path8199"
         d="m -824.17651,-47.980421 c -0.178,-0.178 -0.425,-0.281 -0.676,-0.281 -1.81,-0.001 -3.11,-0.381 -4.073,-0.931 -0.724,-0.414 -1.266,-0.925 -1.69,-1.487 -0.633,-0.84 -0.988,-1.802 -1.178,-2.633 -0.188,-0.815 -0.212,-1.494 -0.213,-1.775 0,-0.006 0,-0.015 0,-0.021 0,-0.01 0,-0.016 0,-0.026 l 0.001,-0.073 10e-4,-0.021 0,0 0,0 0,0 c 0,-0.008 -0.005,-0.014 -0.004,-0.021 -10e-4,-0.041 -0.002,-0.068 -0.002,-0.076 l -0.01,0 c -0.013,-0.227 -0.09,-0.445 -0.249,-0.612 -0.18,-0.191 -0.431,-0.297 -0.691,-0.297 h -0.008 c -0.262,0 -0.512,0.106 -0.693,0.297 -0.159,0.167 -0.236,0.384 -0.247,0.611 l -0.009,0 c 0,0.008 -0.002,0.035 -0.004,0.076 10e-4,0.007 -0.002,0.013 -0.002,0.021 0,0.008 10e-4,0.042 0.002,0.089 -10e-4,0.013 -10e-4,0.02 -10e-4,0.033 0,0.005 0,0.013 10e-4,0.017 0.003,0.505 -0.097,2.287 -1.01,3.833 -0.46,0.785 -1.108,1.514 -2.072,2.065 -0.964,0.549 -2.265,0.93 -4.074,0.931 -0.251,0 -0.499,0.103 -0.677,0.281 -0.178,0.178 -0.28,0.425 -0.28,0.677 0,0.251 0.102,0.498 0.28,0.676 0.179,0.179 0.426,0.281 0.677,0.281 h 7.156 v 11.261 h 1.914 v -11.261 h 7.155 c 0.251,0 0.498,-0.102 0.676,-0.281 0.179,-0.178 0.28,-0.425 0.28,-0.676 0,-0.252 -0.102,-0.499 -0.28,-0.677 z"
         inkscape:connector-curvature="0" /><path
         id="path8201"
         d="m -810.48151,-16.901421 v -49.589 h -44.969 v 0.957 48.632 c 0,10.694 7.471,19.643 17.481,21.918 0.446,2.358 2.514,4.141 5.004,4.142 0.899,-10e-4 1.744,-0.236 2.477,-0.645 0.025,10e-4 0.044,0.014 0.07,0.014 h 12.283 c 0.522,0.001 0.946,0.424 0.948,0.951 -0.002,0.525 -0.426,0.949 -0.948,0.951 h -10.004 c -0.051,0 -0.093,0.021 -0.141,0.028 -1.447,0.143 -2.583,1.348 -2.584,2.834 10e-4,1.489 1.137,2.694 2.583,2.838 0.048,0.009 0.091,0.03 0.142,0.03 h 12.789 c 0.529,0 0.956,-0.429 0.956,-0.959 0,-0.527 -0.427,-0.956 -0.956,-0.956 h -12.65 c -0.523,-0.002 -0.95,-0.428 -0.952,-0.953 0.002,-0.522 0.428,-0.949 0.952,-0.949 h 9.865 c 1.581,0 2.861,-1.283 2.861,-2.864 0,-1.583 -1.28,-2.867 -2.861,-2.867 h -10.423 c 0.281,-0.485 0.486,-1.022 0.596,-1.595 10.007,-2.276 17.48,-11.224 17.481,-21.918 z m -43.056,0 v -17.162 h 3.347 c 0.529,0 0.958,-0.429 0.958,-0.958 0,-0.529 -0.429,-0.957 -0.958,-0.957 h -3.347 v -3.708 h 1.19 c 0.528,0 0.957,-0.429 0.957,-0.957 0,-0.528 -0.429,-0.957 -0.957,-0.957 h -1.19 v -3.787 h 3.347 c 0.529,0 0.958,-0.428 0.958,-0.957 0,-0.528 -0.429,-0.957 -0.958,-0.957 h -3.347 v -3.833 h 1.19 c 0.528,0 0.957,-0.428 0.957,-0.957 0,-0.529 -0.429,-0.957 -0.957,-0.957 h -1.19 v -3.727 h 3.347 c 0.529,0 0.958,-0.428 0.958,-0.957 0,-0.529 -0.429,-0.957 -0.958,-0.957 h -3.347 v -5.887 h 8.783 v 2.923 c 0,0.529 0.429,0.957 0.957,0.957 0.528,0 0.956,-0.428 0.956,-0.957 v -2.923 h 3.511 v 1.397 c 0,0.529 0.429,0.958 0.958,0.958 0.529,0 0.957,-0.429 0.957,-0.958 v -1.397 h 3.617 v 2.924 c 0,0.529 0.428,0.957 0.956,0.957 0.529,0 0.958,-0.428 0.958,-0.957 v -2.924 h 3.564 l -10e-4,1.397 c -10e-4,0.529 0.426,0.957 0.955,0.958 0.529,0 0.957,-0.429 0.957,-0.958 l 10e-4,-1.397 h 3.512 l -10e-4,2.922 c -10e-4,0.529 0.428,0.958 0.958,0.958 0.527,0 0.955,-0.428 0.955,-0.957 v -2.923 h 8.59 v 5.887 h -3.559 c -0.527,0 -0.956,0.428 -0.956,0.957 0,0.528 0.429,0.957 0.956,0.957 h 3.559 v 3.727 h -1.4 c -0.528,0 -0.957,0.428 -0.957,0.957 0,0.529 0.429,0.957 0.957,0.957 h 1.4 v 3.833 h -3.559 c -0.527,0 -0.956,0.429 -0.956,0.957 0,0.529 0.429,0.957 0.956,0.957 h 3.559 v 3.787 h -1.4 c -0.528,0 -0.957,0.428 -0.957,0.957 0,0.529 0.429,0.957 0.957,0.957 h 1.4 v 3.708 h -3.559 c -0.527,0 -0.956,0.428 -0.956,0.957 0,0.528 0.429,0.958 0.956,0.958 h 3.559 v 17.162 c -10e-4,5.682 -2.301,10.817 -6.024,14.543 -3.727,3.725 -8.862,6.024 -14.546,6.025 -5.685,-10e-4 -10.822,-2.301 -14.547,-6.025 -3.725,-3.726 -6.025,-8.862 -6.026,-14.543 z m 22.821,23.214 c -0.579,0.576 -1.367,0.932 -2.248,0.932 -0.881,0 -1.671,-0.355 -2.25,-0.932 -0.265,-0.266 -0.476,-0.578 -0.634,-0.922 0.945,0.123 1.906,0.191 2.884,0.191 0.978,0 1.938,-0.068 2.882,-0.191 -0.16,0.343 -0.369,0.657 -0.634,0.922 z"
         inkscape:connector-curvature="0" /><path
         id="path8203"
         d="m -844.90651,-28.917421 c -0.777,0.777 -0.776,2.038 0,2.815 l 9.371,9.372 2.792,-2.841 -9.346,-9.346 c -0.779,-0.777 -2.039,-0.779 -2.817,0 z"
         inkscape:connector-curvature="0" /></g></g></svg>