<?xml version="1.0" encoding="utf-8"?>
<!-- Generator: Adobe Illustrator 16.0.0, SVG Export Plug-In . SVG Version: 6.00 Build 0)  -->
<!DOCTYPE svg PUBLIC "-//W3C//DTD SVG 1.1//EN" "http://www.w3.org/Graphics/SVG/1.1/DTD/svg11.dtd">
<svg version="1.1"
	 id="Layer_1" xmlns:dc="http://purl.org/dc/elements/1.1/" xmlns:rdf="http://www.w3.org/1999/02/22-rdf-syntax-ns#" xmlns:cc="http://creativecommons.org/ns#" xmlns:sodipodi="http://sodipodi.sourceforge.net/DTD/sodipodi-0.dtd" xmlns:svg="http://www.w3.org/2000/svg" xmlns:inkscape="http://www.inkscape.org/namespaces/inkscape" sodipodi:docname="compass.svg" inkscape:version="0.48.4 r9939"
	 xmlns="http://www.w3.org/2000/svg" xmlns:xlink="http://www.w3.org/1999/xlink" x="0px" y="0px" width="100px" height="100px"
	 viewBox="0 0 100 100" enable-background="new 0 0 100 100" xml:space="preserve">
<sodipodi:namedview  inkscape:cy="45" inkscape:cx="45" inkscape:zoom="2.6222222" showgrid="false" guidetolerance="10" gridtolerance="10" pagecolor="#ffffff" borderopacity="1" bordercolor="#666666" objecttolerance="10" id="namedview11010" inkscape:window-width="1535" inkscape:pageshadow="2" inkscape:window-maximized="1" inkscape:current-layer="Layer_1" inkscape:window-x="65" inkscape:window-y="24" inkscape:window-height="876" inkscape:pageopacity="0">
	</sodipodi:namedview>
<g id="g10361" transform="matrix(0.68418183,1.0580927,-1.0580927,0.68418183,584.1637,951.11024)">
	<g id="g10324">
		<path id="path8175" inkscape:connector-curvature="0" fill="#FFFFFF" d="M-814.853-16.975l-0.958,0
			c0,4.738-1.919,9.021-5.024,12.129c-3.106,3.105-7.389,5.023-12.129,5.023c-4.74,0-9.023-1.918-12.13-5.023
			c-3.105-3.108-5.023-7.391-5.024-12.129c0.001-4.739,1.918-9.022,5.024-12.129c3.107-3.106,7.39-5.023,12.131-5.024
			c4.74,0,9.022,1.918,12.13,5.024c3.104,3.107,5.023,7.39,5.024,12.129L-814.853-16.975l0.954,0
			c0-10.531-8.534-19.066-19.065-19.068c-10.534,0.001-19.069,8.537-19.069,19.068c0,10.528,8.536,19.066,19.07,19.066
			c10.531,0,19.064-8.539,19.064-19.067L-814.853-16.975L-814.853-16.975z"/>
		<path id="path8179" inkscape:connector-curvature="0" fill="#FFFFFF" d="M-829.325-30.179l-16.425,16.423
			c-0.355,0.355-0.355,0.931,0,1.287c0.355,0.355,0.931,0.355,1.287,0l16.424-16.424c0.354-0.355,0.355-0.931,0-1.286
			C-828.393-30.534-828.97-30.534-829.325-30.179"/>
		<path id="path8181" inkscape:connector-curvature="0" fill="#FFFFFF" d="M-836.064-31.303l-10.809,10.808
			c-0.355,0.354-0.355,0.93,0,1.286c0.356,0.354,0.931,0.354,1.286,0l10.809-10.808c0.354-0.355,0.354-0.932,0-1.286
			C-835.133-31.657-835.71-31.658-836.064-31.303"/>
		<path id="path8183" inkscape:connector-curvature="0" fill="#FFFFFF" d="M-822.59-29.056l-9.732,9.735
			c-0.354,0.354,0.272,0.304,0.628,0.658c0.354,0.354,0.302,0.983,0.659,0.627l9.733-9.735c0.354-0.353,0.353-0.931,0-1.286
			C-821.658-29.412-822.234-29.411-822.59-29.056"/>
		<path id="path8185" inkscape:connector-curvature="0" fill="#FFFFFF" d="M-843.342-5.731l9.473-9.471
			c0.354-0.355-0.289-0.285-0.643-0.642c-0.356-0.354-0.026-1.261-0.382-0.907l-9.734,9.733c-0.354,0.356-0.354,0.933,0,1.285
			C-844.273-5.376-843.696-5.377-843.342-5.731"/>
		<path id="path8187" inkscape:connector-curvature="0" fill="#FFFFFF" d="M-821.465-22.319l-6.731,6.731
			c-0.355,0.354,0,0.549,0.354,0.903c0.356,0.357,0.577,0.738,0.932,0.383l6.732-6.73c0.354-0.355,0.354-0.931,0-1.285
			C-820.533-22.674-821.109-22.674-821.465-22.319"/>
		<path id="path8189" inkscape:connector-curvature="0" fill="#FFFFFF" d="M-820.342-15.582l-3.89,3.892
			c-0.355,0.356-0.117,0.764,0.237,1.117c0.354,0.354,0.694,0.523,1.049,0.168l3.888-3.892c0.355-0.355,0.354-0.932,0.001-1.286
			C-819.413-15.938-819.988-15.938-820.342-15.582"/>
		<path id="path8191" inkscape:connector-curvature="0" fill="#FFFFFF" d="M-829.857-3.474l3.891-3.893
			c0.354-0.355-0.549-0.251-0.904-0.607c-0.354-0.354-0.027-1.034-0.384-0.679l-3.89,3.892c-0.354,0.354-0.354,0.932,0.001,1.287
			C-830.788-3.119-830.211-3.12-829.857-3.474"/>
		<path id="path8193" inkscape:connector-curvature="0" fill="#FFFFFF" d="M-836.604-4.609l6.597-6.595
			c0.354-0.354-0.291-0.073-0.646-0.429c-0.355-0.355-0.284-1.212-0.641-0.856l-6.596,6.594c-0.355,0.354-0.355,0.931,0,1.286
			C-837.535-4.255-836.959-4.254-836.604-4.609"/>
		<path id="path8197" inkscape:connector-curvature="0" fill="#FFFFFF" d="M-821.025-7.853l0.26-0.259l-21.065-21.066
			c-0.461-0.459-1.067-0.691-1.669-0.691c-0.601,0-1.207,0.231-1.666,0.691c-0.46,0.459-0.69,1.064-0.69,1.667
			c0,0.603,0.231,1.208,0.69,1.668l10.523,10.523l0.522-0.517c-0.313-0.317-0.466-0.729-0.467-1.142
			c0.001-0.417,0.158-0.83,0.474-1.146l-0.002,0l0.002,0c0.318-0.317,0.731-0.476,1.148-0.476c0.416,0,0.829,0.158,1.147,0.476
			c0.318,0.318,0.478,0.732,0.477,1.147c0,0.418-0.158,0.831-0.477,1.15c-0.318,0.316-0.73,0.474-1.146,0.474
			c-0.414,0-0.823-0.155-1.14-0.467l-0.518,0.522L-824.1-4.777c0.458,0.458,1.065,0.691,1.666,0.691
			c0.603,0,1.208-0.232,1.668-0.691l-0.006,0.006l0.006-0.007c0.46-0.46,0.692-1.065,0.691-1.667
			c0.001-0.603-0.231-1.208-0.691-1.667L-821.025-7.853l-0.26,0.26c0.316,0.319,0.475,0.732,0.476,1.148
			c-0.002,0.417-0.158,0.829-0.476,1.148l0.008-0.008l-0.008,0.008c-0.318,0.317-0.73,0.476-1.148,0.476
			c-0.415,0-0.828-0.158-1.146-0.477l-10.523-10.52l-0.518,0.523c0.458,0.449,1.058,0.678,1.656,0.677
			c0.602,0,1.206-0.23,1.664-0.689c0.461-0.461,0.693-1.067,0.693-1.67c0-0.602-0.233-1.208-0.693-1.667
			c-0.458-0.461-1.063-0.691-1.666-0.691c-0.602,0-1.208,0.23-1.668,0.691l0.003-0.003l-0.003,0.003
			c-0.459,0.459-0.69,1.064-0.69,1.666c0.001,0.598,0.227,1.198,0.679,1.656l0.521-0.517l-10.523-10.525
			c-0.317-0.317-0.474-0.73-0.475-1.147c0.001-0.416,0.158-0.829,0.475-1.147c0.318-0.318,0.731-0.475,1.147-0.475
			c0.417,0,0.831,0.157,1.149,0.475l21.065,21.064L-821.025-7.853L-821.025-7.853z"/>
		<path id="path8199" inkscape:connector-curvature="0" fill="#FFFFFF" d="M-824.176-47.981c-0.178-0.178-0.425-0.28-0.676-0.281
			c-1.81-0.001-3.11-0.381-4.073-0.931c-0.724-0.414-1.266-0.925-1.69-1.487c-0.633-0.84-0.987-1.802-1.178-2.633
			c-0.188-0.815-0.211-1.494-0.213-1.775c0-0.006,0-0.015,0-0.022c0-0.009,0-0.015,0-0.026l0.001-0.073l0-0.02l0,0l0,0l0,0
			c0.001-0.009-0.005-0.014-0.004-0.021c-0.001-0.041-0.002-0.068-0.002-0.077l-0.011,0.001c-0.012-0.228-0.089-0.445-0.249-0.612
			c-0.18-0.191-0.431-0.297-0.691-0.297l-0.008,0c-0.262,0-0.512,0.106-0.693,0.297c-0.159,0.167-0.236,0.384-0.247,0.611l-0.009,0
			c0.001,0.008-0.002,0.035-0.003,0.075c0.001,0.008-0.002,0.013-0.002,0.021c-0.001,0.009,0,0.043,0.002,0.09
			c-0.001,0.012-0.001,0.02-0.001,0.033c0,0.006,0,0.013,0.001,0.017c0.003,0.505-0.097,2.287-1.009,3.833
			c-0.461,0.786-1.108,1.514-2.073,2.065c-0.964,0.549-2.265,0.93-4.074,0.93c-0.251,0-0.499,0.103-0.677,0.282
			c-0.178,0.178-0.28,0.425-0.28,0.677c0,0.251,0.102,0.498,0.28,0.676c0.179,0.179,0.426,0.28,0.677,0.281l7.156,0l0,11.261
			l1.914,0l0-11.261l7.155,0c0.251,0,0.498-0.102,0.676-0.281c0.179-0.178,0.28-0.424,0.28-0.676
			C-823.896-47.556-823.998-47.803-824.176-47.981L-824.176-47.981z"/>
		<path id="path8201" inkscape:connector-curvature="0" fill="#FFFFFF" d="M-810.481-16.901l0-49.589l-44.969,0l0,0.956l0,48.632
			c0,10.694,7.471,19.643,17.481,21.918c0.446,2.358,2.515,4.141,5.004,4.142c0.9-0.001,1.744-0.236,2.477-0.645
			c0.025,0.001,0.044,0.014,0.07,0.014l12.283,0c0.522,0.001,0.946,0.424,0.948,0.951c-0.003,0.525-0.426,0.949-0.948,0.951
			l-10.004,0c-0.052,0-0.093,0.021-0.142,0.028c-1.447,0.143-2.583,1.348-2.584,2.834c0.001,1.489,1.137,2.694,2.583,2.838
			c0.049,0.009,0.091,0.03,0.142,0.03l12.789,0c0.529,0,0.956-0.429,0.956-0.959c0-0.527-0.427-0.956-0.956-0.956H-828
			c-0.523-0.002-0.95-0.428-0.952-0.953c0.002-0.522,0.427-0.949,0.952-0.949l9.865,0c1.581,0,2.861-1.283,2.861-2.864
			c0.001-1.583-1.28-2.867-2.861-2.867l-10.423,0c0.281-0.485,0.486-1.022,0.596-1.595C-817.955,2.741-810.482-6.207-810.481-16.901
			L-810.481-16.901z M-853.537-16.902l0-17.162l3.347,0c0.529,0,0.958-0.429,0.958-0.958c0-0.529-0.429-0.957-0.958-0.957h-3.347
			l0-3.708l1.19,0c0.528,0,0.957-0.429,0.957-0.957c0-0.528-0.429-0.957-0.957-0.957h-1.19l0-3.787h3.347
			c0.529,0,0.958-0.428,0.958-0.957c0-0.528-0.429-0.958-0.958-0.957l-3.347,0l0-3.833l1.189,0c0.528,0,0.957-0.429,0.957-0.957
			s-0.429-0.957-0.957-0.957l-1.19,0l0-3.728l3.347,0c0.529,0.001,0.958-0.427,0.958-0.957c0-0.529-0.429-0.957-0.958-0.957
			l-3.348,0.001l0.001-5.887l8.783,0l0,2.922c0,0.53,0.429,0.957,0.957,0.957c0.528,0,0.956-0.428,0.956-0.957l0-2.923l3.511,0
			l0,1.396c0,0.529,0.429,0.958,0.958,0.958c0.529,0,0.957-0.43,0.957-0.958v-1.397l3.617,0v2.924c0,0.529,0.428,0.957,0.956,0.957
			c0.529,0,0.958-0.428,0.958-0.957v-2.924l3.564,0l-0.001,1.397c-0.001,0.529,0.426,0.957,0.955,0.958
			c0.529,0,0.957-0.429,0.957-0.958l0.001-1.397l3.512,0l-0.001,2.922c-0.001,0.529,0.428,0.958,0.958,0.958
			c0.527,0,0.955-0.428,0.955-0.957l0-2.923l8.59,0l0,5.886l-3.559,0c-0.527,0-0.956,0.428-0.955,0.957
			c0,0.528,0.429,0.957,0.955,0.957l3.559,0l0,3.727l-1.399,0c-0.529,0-0.958,0.428-0.957,0.957c0,0.53,0.429,0.957,0.957,0.957
			l1.4,0l0,3.833l-3.559,0c-0.527,0.001-0.956,0.429-0.956,0.958c0.001,0.528,0.429,0.957,0.957,0.957l3.559,0l0,3.787l-1.4,0
			c-0.528,0-0.957,0.428-0.957,0.957c-0.001,0.529,0.429,0.957,0.957,0.957l1.4,0l0,3.708l-3.559,0
			c-0.528-0.001-0.956,0.428-0.957,0.957c0,0.528,0.429,0.958,0.956,0.958l3.559,0l0,17.162c-0.001,5.682-2.301,10.817-6.024,14.543
			c-3.727,3.725-8.862,6.024-14.546,6.025c-5.685-0.001-10.822-2.301-14.547-6.025C-851.236-6.085-853.536-11.221-853.537-16.902
			L-853.537-16.902z M-830.716,6.313c-0.579,0.576-1.367,0.932-2.248,0.932c-0.881,0-1.671-0.355-2.249-0.932
			c-0.265-0.266-0.476-0.578-0.635-0.923c0.945,0.123,1.906,0.192,2.884,0.191c0.978,0,1.939-0.068,2.882-0.191
			C-830.242,5.733-830.452,6.047-830.716,6.313L-830.716,6.313z"/>
		<path id="path8203" inkscape:connector-curvature="0" fill="#FFFFFF" d="M-844.906-28.918c-0.777,0.777-0.776,2.038,0,2.815
			l9.371,9.372l2.791-2.841l-9.346-9.346C-842.868-29.694-844.129-29.697-844.906-28.918L-844.906-28.918z"/>
	</g>
</g>
</svg>
