<svg xmlns="http://www.w3.org/2000/svg" xmlns:xlink="http://www.w3.org/1999/xlink" version="1.1" width="96" height="96" viewBox="0 0 96 96">
<path d="M89.692 75.508c-0.12 0-0.252-0.016-0.38-0.040-1.084-0.212-1.796-1.256-1.584-2.344 2.252-11.648 1.908-21.296 1.696-27.068l-0.048-1.3c0-22.504-18.608-40.752-41.476-40.752-12.64 0-24.928 6.116-32.876 16.352-0.676 0.872-1.928 1.036-2.808 0.352-0.872-0.676-1.032-1.932-0.352-2.804 8.7-11.212 22.172-17.904 36.036-17.904 25.076 0 45.476 20.044 45.476 44.684l0.040 1.16c0.22 6.008 0.58 15.944-1.76 28.048-0.188 0.952-1.024 1.616-1.964 1.616z" fill="#000000"/>
	<path d="M4.428 54.116c-1.104 0-2-0.9-2-2v-7.168c0-7.096 1.796-14.632 4.928-20.68 0.504-0.98 1.708-1.364 2.696-0.852 0.98 0.504 1.364 1.72 0.856 2.692-2.844 5.496-4.48 12.364-4.48 18.84v7.168c0 1.104-0.896 2-2 2z" fill="#000000"/>
	<path d="M6.28 61.868c-1.104 0-2-0.896-2-2 0-1.1 0.896-2 2-2 2.364 0 4.148-1.904 4.148-4.42v-8.496c0-19.72 17.024-36.384 37.18-36.384 5.016 0 10.216 1.008 14.628 2.84 1.024 0.42 1.508 1.592 1.084 2.612s-1.592 1.504-2.612 1.084c-3.94-1.632-8.588-2.532-13.096-2.532-17.984 0-33.18 14.832-33.18 32.384v8.496c-0.004 4.72-3.584 8.416-8.152 8.416z" fill="#000000"/>
	<path d="M77.42 87.572c-0.236 0-0.468-0.040-0.696-0.132-1.040-0.38-1.568-1.532-1.184-2.568 6.104-16.448 5.568-31.332 5.304-38.488l-0.020-0.504c-0.024-0.46-0.040-0.86-0.040-1.2 0-9.828-4.532-18.996-12.444-25.148-0.876-0.68-1.032-1.932-0.352-2.804 0.672-0.872 1.936-1.032 2.804-0.352 8.896 6.916 13.992 17.228 13.992 28.304 0 0.292 0.016 0.636 0.032 1.028l0.020 0.428c0.268 7.512 0.832 22.932-5.544 40.124-0.296 0.812-1.056 1.312-1.872 1.312z" fill="#000000"/>
	<path d="M65.78 92.592c-0.3 0-0.608-0.072-0.904-0.22-0.98-0.5-1.376-1.704-0.876-2.68 9.16-18.040 8.54-34.916 8.248-43.032-0.040-0.98-0.060-1.52-0.060-1.972 0-12.992-10.896-23.556-24.288-23.556-3.696 0-7.28 0.844-10.644 2.508-0.996 0.488-2.188 0.080-2.68-0.908-0.492-0.992-0.084-2.188 0.908-2.68 3.92-1.94 8.1-2.92 12.416-2.92 15.596 0 28.288 12.36 28.288 27.556 0 0.416 0.020 0.904 0.044 1.468 0.296 8.148 0.964 26.392-8.664 45.34-0.348 0.7-1.056 1.096-1.788 1.096z" fill="#000000"/>
	<path d="M21.612 46.948c-1.104 0-2-0.896-2-2 0-7.744 3.452-15.248 9.476-20.588 0.82-0.732 2.088-0.66 2.824 0.168s0.66 2.092-0.168 2.824c-5.164 4.584-8.128 10.996-8.128 17.596-0.004 1.104-0.9 2-2.004 2z" fill="#000000"/>
	<path d="M6.576 70.792c-0.868 0-1.668-0.568-1.92-1.432-0.308-1.068 0.3-2.172 1.36-2.484l3.764-1.096c7.624-2.224 9.832-4.988 9.832-12.328 0-1.096 0.896-2 2-2s2 0.904 2 2c0 9.084-3.444 13.468-12.712 16.168l-3.764 1.092c-0.188 0.056-0.376 0.080-0.56 0.080z" fill="#000000"/>
	<path d="M53.804 96c-0.384 0-0.772-0.104-1.112-0.336-0.916-0.616-1.16-1.86-0.544-2.776 7.92-11.784 11.736-25.232 11.632-41.104 0-1.096 0.888-2.004 1.992-2.008 0.928-0.076 2 0.884 2.008 1.988 0.1 16.476-4.040 31.060-12.312 43.36-0.388 0.572-1.024 0.876-1.664 0.876z" fill="#000000"/>
	<path d="M11.868 77.916c-0.868 0-1.668-0.572-1.92-1.436-0.308-1.064 0.3-2.172 1.36-2.484 10.88-3.164 15.116-8.924 15.116-20.548v-8.496c0-10.26 9.62-19.26 20.584-19.26 10.86 0 19.7 8.52 19.7 18.996 0 1.104-0.896 2-2 2s-2-0.896-2-2c0-8.268-7.044-14.996-15.7-14.996-8.68 0-16.584 7.276-16.584 15.26v8.496c0 13.244-5.552 20.756-18 24.392-0.18 0.052-0.372 0.076-0.556 0.076z" fill="#000000"/>
	<path d="M43.28 95.816c-0.444 0-0.892-0.148-1.264-0.448-0.856-0.696-0.984-1.956-0.284-2.812 5.336-6.54 9.132-13.976 11.28-22.116 0.284-1.072 1.396-1.708 2.44-1.42 1.072 0.28 1.708 1.376 1.424 2.44-2.292 8.7-6.348 16.648-12.048 23.628-0.392 0.484-0.968 0.728-1.548 0.728z" fill="#000000"/>
	<path d="M19.068 85.124c-0.816 0-1.584-0.504-1.88-1.312-0.38-1.048 0.156-2.192 1.196-2.572 16.568-6.032 20.044-18.448 20.044-27.804v-8.496c0-5.996 4.52-10.692 10.288-10.692 5.892 0 10.696 4.68 10.696 10.428 0 0.728 0.064 1.652 0.128 2.752 0.14 2.176 0.332 5.168 0.2 8.6-0.044 1.1-1.016 1.964-2.080 1.92-1.1-0.048-1.964-0.976-1.92-2.084 0.128-3.232-0.052-5.98-0.188-8.188-0.084-1.2-0.14-2.212-0.14-3.004 0-3.544-3.008-6.428-6.7-6.428-3.528 0-6.288 2.94-6.288 6.692v8.496c0 10.632-3.932 24.736-22.676 31.568-0.22 0.088-0.452 0.124-0.68 0.124z" fill="#000000"/>
	<path d="M43.968 77.392c-0.312 0-0.624-0.072-0.916-0.224-0.984-0.508-1.364-1.716-0.856-2.696 2.888-5.568 4.232-11.708 4.232-19.328v-7.028c0-1.104 0.896-2 2-2s2 0.896 2 2v7.028c0 8.284-1.492 15.016-4.68 21.172-0.356 0.684-1.056 1.076-1.78 1.076z" fill="#000000"/>
	<path d="M29.368 91.956c-0.68 0-1.344-0.348-1.72-0.972-0.568-0.952-0.256-2.176 0.692-2.744 3.42-2.040 6.344-4.452 8.692-7.164 0.724-0.836 1.992-0.924 2.82-0.204 0.836 0.724 0.924 1.984 0.204 2.82-2.628 3.032-5.88 5.724-9.668 7.984-0.32 0.192-0.672 0.28-1.020 0.28z" fill="#000000"/>
</svg>