<svg xmlns="http://www.w3.org/2000/svg" xmlns:xlink="http://www.w3.org/1999/xlink" version="1.1" id="Layer_1" x="0px" y="0px" width="100px" height="100px" viewBox="0 0 100 100" enable-background="new 0 0 100 100" xml:space="preserve">
<g>
	<path d="M50.637,39.2l6.303-6.311c0.49-0.48,0.639-1.211,0.394-1.852c-3.082-7.865-1.552-15.913,4.082-21.544   C66.537,4.36,73.937,2.36,80.866,4.061l-9.29,9.29c-2.01,2.012-3.125,4.688-3.125,7.538c0,2.847,1.115,5.516,3.125,7.536   c2.02,2.008,4.688,3.125,7.535,3.125c2.849,0,5.528-1.117,7.534-3.125l9.29-9.29c1.701,6.932-0.295,14.327-5.43,19.453   c-5.635,5.632-13.679,7.161-21.545,4.081c-0.894-0.353-1.891,0.095-2.242,0.988c-0.351,0.893,0.095,1.89,0.978,2.243   c3.115,1.221,6.25,1.817,9.3,1.817c5.952,0,11.576-2.286,15.966-6.676c6.759-6.76,8.863-16.88,5.377-25.787   c-0.212-0.539-0.679-0.943-1.255-1.061c-0.573-0.119-1.169,0.063-1.583,0.476l-11.308,11.3c-1.351,1.359-3.158,2.104-5.082,2.104   c-1.913,0-3.719-0.745-5.079-2.104c-1.361-1.359-2.105-3.169-2.105-5.081c0-1.926,0.744-3.731,2.105-5.08l11.296-11.31   c0.416-0.415,0.596-1.01,0.479-1.584s-0.519-1.041-1.072-1.254C75.837-1.826,65.72,0.278,58.959,7.04   c-6.377,6.376-8.301,15.348-5.261,24.18l-5.516,5.526c-0.68,0.679-0.68,1.775,0,2.454C48.852,39.88,49.957,39.88,50.637,39.2z"/>
	<path d="M41.869,68.294L15.945,94.228c-0.042,0.03-3.326,3.2-7.025,2.03c-0.915-0.287-1.892,0.222-2.179,1.136   c-0.288,0.916,0.212,1.893,1.126,2.181C8.824,99.87,9.749,100,10.631,100c4.379,0,7.59-3.146,7.76-3.318l25.933-25.934   c0.68-0.679,0.68-1.776,0-2.454C43.644,67.625,42.549,67.625,41.869,68.294z"/>
	<path d="M38.011,51.818c0.68-0.669,0.68-1.775,0-2.455c-0.682-0.671-1.776-0.671-2.457,0L3.308,81.61   c-0.191,0.202-4.688,4.784-2.88,10.514c0.233,0.744,0.924,1.222,1.658,1.222c0.17,0,0.352-0.032,0.521-0.085   c0.915-0.288,1.424-1.268,1.138-2.18c-1.169-3.699,1.999-6.981,2.02-7.013L38.011,51.818z"/>
	<path d="M63.253,49.363c-0.191-0.183-0.424-0.33-0.68-0.416L44.024,42.76L25.395,24.128c-0.329-0.327-0.766-0.509-1.222-0.509   H12.535L4.265,9.855l4.4-4.401l13.766,8.27v5.324c0,0.959,0.785,1.731,1.743,1.731c0.957,0,1.732-0.772,1.732-1.731v-6.311   c0-0.606-0.319-1.17-0.839-1.491L9.292,1.789c-0.691-0.415-1.563-0.31-2.125,0.252L0.854,8.356C0.3,8.92,0.183,9.791,0.597,10.473   l9.461,15.772c0.319,0.531,0.882,0.851,1.488,0.851H23.45l18.419,18.419c0.007,0.008,0.018,0.01,0.025,0.017   c0.144,0.138,0.314,0.249,0.505,0.333c0.028,0.013,0.055,0.026,0.084,0.037c0.023,0.008,0.042,0.021,0.066,0.029l18.536,6.188   l31.259,31.248c0.043,0.042,3.89,4.025,2.721,7.715c-0.285,0.912,0.224,1.892,1.139,2.18c0.18,0.053,0.351,0.085,0.521,0.085   c0.744,0,1.423-0.478,1.658-1.222c1.808-5.729-3.36-10.992-3.582-11.214L63.253,49.363z"/>
	<path d="M89.899,96.258c-3.721,1.17-7.683-2.69-7.716-2.721l-31.26-31.26l-3.028-9.076c-0.298-0.904-1.286-1.395-2.189-1.096   c-0.915,0.297-1.404,1.286-1.106,2.191l3.158,9.468c0.085,0.256,0.233,0.49,0.425,0.672l31.546,31.555   c0.181,0.182,4.027,3.966,8.704,3.966c0.818,0,1.659-0.117,2.51-0.383c0.912-0.288,1.414-1.265,1.126-2.181   C91.78,96.479,90.804,95.971,89.899,96.258z"/>
	<path d="M87.265,90.188c0.446,0,0.881-0.172,1.222-0.51c0.679-0.682,0.679-1.774,0-2.456L56.939,55.676   c-0.679-0.68-1.774-0.68-2.455,0c-0.68,0.684-0.68,1.775,0,2.458L86.03,89.679C86.371,90.017,86.817,90.188,87.265,90.188z"/>
</g>
</svg>